<svg width="14" height="14" viewBox="0 0 14 14" fill="none" xmlns="http://www.w3.org/2000/svg">
<path fill-rule="evenodd" clip-rule="evenodd" d="M7.39765 11.4642C8.4242 10.9017 11.0833 9.17816 11.0833 6.41683C11.0833 4.16167 9.25512 2.3335 6.99996 2.3335C4.7448 2.3335 2.91663 4.16167 2.91663 6.41683C2.91663 9.17816 5.57572 10.9017 6.60227 11.4642C6.85208 11.601 7.14784 11.601 7.39765 11.4642ZM6.99996 8.16683C7.96646 8.16683 8.74996 7.38333 8.74996 6.41683C8.74996 5.45033 7.96646 4.66683 6.99996 4.66683C6.03346 4.66683 5.24996 5.45033 5.24996 6.41683C5.24996 7.38333 6.03346 8.16683 6.99996 8.16683Z" fill="#33363F" fill-opacity="0.7"/>
</svg>
